<svg width="120" height="22" viewBox="0 0 120 22" fill="none" xmlns="http://www.w3.org/2000/svg">
<mask id="path-1-inside-1_57_2" fill="white">
<path d="M12.6562 0.59375C13.7083 0.59375 14.6615 0.75 15.5156 1.0625C16.3698 1.375 17.0938 1.80208 17.6875 2.34375C18.2917 2.88542 18.7552 3.52083 19.0781 4.25C19.401 4.96875 19.5625 5.73438 19.5625 6.54688V16.0469C19.5625 16.8594 19.401 17.6302 19.0781 18.3594C18.7552 19.0781 18.2917 19.7083 17.6875 20.25C17.0938 20.7917 16.3698 21.2188 15.5156 21.5312C14.6615 21.8438 13.7083 22 12.6562 22H7.84375C6.79167 22 5.83854 21.8438 4.98438 21.5312C4.13021 21.2188 3.40104 20.7917 2.79688 20.25C2.20312 19.7083 1.74479 19.0781 1.42188 18.3594C1.09896 17.6302 0.9375 16.8594 0.9375 16.0469V6.54688C0.9375 5.73438 1.09896 4.96875 1.42188 4.25C1.74479 3.52083 2.20312 2.88542 2.79688 2.34375C3.40104 1.80208 4.13021 1.375 4.98438 1.0625C5.83854 0.75 6.79167 0.59375 7.84375 0.59375H12.6562ZM15.7812 2H14.125V12.2344C14.1042 12.3698 14.0677 12.5156 14.0156 12.6719C13.974 12.8281 13.9323 12.974 13.8906 13.1094L12.875 13.2656H8.875L7.84375 13.1094L7.625 12.1719V2H6V12.4062L6.1875 13.75L7.20312 14.7344L8.78125 14.9219H12.9688L14.5625 14.7344L15.5625 13.75L15.7812 12.4062V2Z"/>
<path d="M34.0625 4.5L33.8438 3.1875L32.8438 2.1875L31.25 2H27.3438L24.5312 2.39062V14.9219H26.1875V3.82812L27.4062 3.625H31.1562L32.2344 3.79688L32.3906 4.71875V14.9219H34.0625V4.5ZM31.1562 0.59375C32.2083 0.59375 33.1615 0.75 34.0156 1.0625C34.8698 1.375 35.5938 1.80208 36.1875 2.34375C36.7917 2.88542 37.2552 3.52083 37.5781 4.25C37.901 4.96875 38.0625 5.73438 38.0625 6.54688V16.0469C38.0625 16.8594 37.901 17.6302 37.5781 18.3594C37.2552 19.0781 36.7917 19.7083 36.1875 20.25C35.5938 20.7917 34.8698 21.2188 34.0156 21.5312C33.1615 21.8438 32.2083 22 31.1562 22H26.3438C25.2917 22 24.3385 21.8438 23.4844 21.5312C22.6302 21.2188 21.901 20.7917 21.2969 20.25C20.7031 19.7083 20.2448 19.0781 19.9219 18.3594C19.599 17.6302 19.4375 16.8594 19.4375 16.0469V6.54688C19.4375 5.73438 19.599 4.96875 19.9219 4.25C20.2448 3.52083 20.7031 2.88542 21.2969 2.34375C21.901 1.80208 22.6302 1.375 23.4844 1.0625C24.3385 0.75 25.2917 0.59375 26.3438 0.59375H31.1562Z"/>
<path d="M56.6562 0.59375C57.7083 0.59375 58.6615 0.75 59.5156 1.0625C60.3698 1.375 61.0938 1.80208 61.6875 2.34375C62.2917 2.88542 62.7552 3.52083 63.0781 4.25C63.401 4.96875 63.5625 5.73438 63.5625 6.54688V16.0469C63.5625 16.8594 63.401 17.6302 63.0781 18.3594C62.7552 19.0781 62.2917 19.7083 61.6875 20.25C61.0938 20.7917 60.3698 21.2188 59.5156 21.5312C58.6615 21.8438 57.7083 22 56.6562 22H51.8438C50.7917 22 49.8385 21.8438 48.9844 21.5312C48.1302 21.2188 47.401 20.7917 46.7969 20.25C46.2031 19.7083 45.7448 19.0781 45.4219 18.3594C45.099 17.6302 44.9375 16.8594 44.9375 16.0469V6.54688C44.9375 5.73438 45.099 4.96875 45.4219 4.25C45.7448 3.52083 46.2031 2.88542 46.7969 2.34375C47.401 1.80208 48.1302 1.375 48.9844 1.0625C49.8385 0.75 50.7917 0.59375 51.8438 0.59375H56.6562ZM59.5938 10.0312L59.375 8.6875L58.375 7.70312L56.75 7.53125H53.25L52.2969 7.34375C52.2448 7.16667 52.2083 7.01042 52.1875 6.875C52.1667 6.72917 52.1302 6.57812 52.0781 6.42188V4.78125L52.2969 3.85938L53.3281 3.65625H57.2969L58.7656 3.95312L59.1406 2.25L57.3281 2H53.2188L51.6562 2.21875L50.6406 3.21875L50.4375 4.53125V6.67188L50.6406 7.98438L51.6562 8.96875L53.2188 9.17188H56.75L57.7031 9.32812C57.7344 9.48438 57.7708 9.63021 57.8125 9.76562C57.8542 9.90104 57.8906 10.0417 57.9219 10.1875V12.2344C57.901 12.3698 57.8646 12.5156 57.8125 12.6719C57.7708 12.8281 57.7344 12.974 57.7031 13.1094L56.6875 13.2656H52.8125L51.2812 13.0156L50.8906 14.7031L52.7188 14.9219H56.7812L58.375 14.7344L59.375 13.75L59.5938 12.4062V10.0312Z"/>
<path d="M69.0938 13.2656V14.9219H78.125V13.2656H74.4531V3.65625H78.125V2H69.0938V3.65625H72.7812V13.2656H69.0938ZM75.1562 0.59375C76.2083 0.59375 77.1615 0.75 78.0156 1.0625C78.8698 1.375 79.5938 1.80208 80.1875 2.34375C80.7917 2.88542 81.2552 3.52083 81.5781 4.25C81.901 4.96875 82.0625 5.73438 82.0625 6.54688V16.0469C82.0625 16.8594 81.901 17.6302 81.5781 18.3594C81.2552 19.0781 80.7917 19.7083 80.1875 20.25C79.5938 20.7917 78.8698 21.2188 78.0156 21.5312C77.1615 21.8438 76.2083 22 75.1562 22H70.3438C69.2917 22 68.3385 21.8438 67.4844 21.5312C66.6302 21.2188 65.901 20.7917 65.2969 20.25C64.7031 19.7083 64.2448 19.0781 63.9219 18.3594C63.599 17.6302 63.4375 16.8594 63.4375 16.0469V6.54688C63.4375 5.73438 63.599 4.96875 63.9219 4.25C64.2448 3.52083 64.7031 2.88542 65.2969 2.34375C65.901 1.80208 66.6302 1.375 67.4844 1.0625C68.3385 0.75 69.2917 0.59375 70.3438 0.59375H75.1562Z"/>
<path d="M93.6562 0.59375C94.7083 0.59375 95.6615 0.75 96.5156 1.0625C97.3698 1.375 98.0938 1.80208 98.6875 2.34375C99.2917 2.88542 99.7552 3.52083 100.078 4.25C100.401 4.96875 100.562 5.73438 100.562 6.54688V16.0469C100.562 16.8594 100.401 17.6302 100.078 18.3594C99.7552 19.0781 99.2917 19.7083 98.6875 20.25C98.0938 20.7917 97.3698 21.2188 96.5156 21.5312C95.6615 21.8438 94.7083 22 93.6562 22H88.8438C87.7917 22 86.8385 21.8438 85.9844 21.5312C85.1302 21.2188 84.401 20.7917 83.7969 20.25C83.2031 19.7083 82.7448 19.0781 82.4219 18.3594C82.099 17.6302 81.9375 16.8594 81.9375 16.0469V6.54688C81.9375 5.73438 82.099 4.96875 82.4219 4.25C82.7448 3.52083 83.2031 2.88542 83.7969 2.34375C84.401 1.80208 85.1302 1.375 85.9844 1.0625C86.8385 0.75 87.7917 0.59375 88.8438 0.59375H93.6562ZM91.2188 2.25L90.3594 2H88.3125L87 2.21875L86 3.21875V14.9219H87.6719V3.79688C87.8177 3.76562 87.9479 3.74479 88.0625 3.73438C88.1771 3.72396 88.3021 3.69792 88.4375 3.65625H90.2188C90.3333 3.69792 90.4427 3.72396 90.5469 3.73438C90.6615 3.74479 90.776 3.76562 90.8906 3.79688V10.4219H92.5625V3.79688L93.2344 3.65625H95.0312C95.1562 3.69792 95.2812 3.72396 95.4062 3.73438C95.5312 3.74479 95.6615 3.76562 95.7969 3.79688V14.9219H97.4531V3.21875L96.4688 2.21875L95.1562 2H93.1094L92.2656 2.25L91.7344 3.32812L91.2188 2.25Z"/>
<path d="M112.156 0.59375C113.208 0.59375 114.161 0.75 115.016 1.0625C115.87 1.375 116.594 1.80208 117.188 2.34375C117.792 2.88542 118.255 3.52083 118.578 4.25C118.901 4.96875 119.062 5.73438 119.062 6.54688V16.0469C119.062 16.8594 118.901 17.6302 118.578 18.3594C118.255 19.0781 117.792 19.7083 117.188 20.25C116.594 20.7917 115.87 21.2188 115.016 21.5312C114.161 21.8438 113.208 22 112.156 22H107.344C106.292 22 105.339 21.8438 104.484 21.5312C103.63 21.2188 102.901 20.7917 102.297 20.25C101.703 19.7083 101.245 19.0781 100.922 18.3594C100.599 17.6302 100.438 16.8594 100.438 16.0469V6.54688C100.438 5.73438 100.599 4.96875 100.922 4.25C101.245 3.52083 101.703 2.88542 102.297 2.34375C102.901 1.80208 103.63 1.375 104.484 1.0625C105.339 0.75 106.292 0.59375 107.344 0.59375H112.156ZM115.031 4.53125L114.812 3.21875L113.812 2.21875L112.219 2H106.391V14.9219H108.016V10.3125H112.219L113.812 10.125L114.812 9.14062L115.031 7.79688V4.53125ZM113.141 8.5L112.125 8.65625H108.016V3.65625H112.125L113.203 3.82812L113.359 4.75V7.625L113.141 8.5Z"/>
</mask>
<path d="M12.6562 0.59375C13.7083 0.59375 14.6615 0.75 15.5156 1.0625C16.3698 1.375 17.0938 1.80208 17.6875 2.34375C18.2917 2.88542 18.7552 3.52083 19.0781 4.25C19.401 4.96875 19.5625 5.73438 19.5625 6.54688V16.0469C19.5625 16.8594 19.401 17.6302 19.0781 18.3594C18.7552 19.0781 18.2917 19.7083 17.6875 20.25C17.0938 20.7917 16.3698 21.2188 15.5156 21.5312C14.6615 21.8438 13.7083 22 12.6562 22H7.84375C6.79167 22 5.83854 21.8438 4.98438 21.5312C4.13021 21.2188 3.40104 20.7917 2.79688 20.25C2.20312 19.7083 1.74479 19.0781 1.42188 18.3594C1.09896 17.6302 0.9375 16.8594 0.9375 16.0469V6.54688C0.9375 5.73438 1.09896 4.96875 1.42188 4.25C1.74479 3.52083 2.20312 2.88542 2.79688 2.34375C3.40104 1.80208 4.13021 1.375 4.98438 1.0625C5.83854 0.75 6.79167 0.59375 7.84375 0.59375H12.6562ZM15.7812 2H14.125V12.2344C14.1042 12.3698 14.0677 12.5156 14.0156 12.6719C13.974 12.8281 13.9323 12.974 13.8906 13.1094L12.875 13.2656H8.875L7.84375 13.1094L7.625 12.1719V2H6V12.4062L6.1875 13.75L7.20312 14.7344L8.78125 14.9219H12.9688L14.5625 14.7344L15.5625 13.75L15.7812 12.4062V2Z" fill="url(#paint0_linear_57_2)"/>
<path d="M34.0625 4.5L33.8438 3.1875L32.8438 2.1875L31.25 2H27.3438L24.5312 2.39062V14.9219H26.1875V3.82812L27.4062 3.625H31.1562L32.2344 3.79688L32.3906 4.71875V14.9219H34.0625V4.5ZM31.1562 0.59375C32.2083 0.59375 33.1615 0.75 34.0156 1.0625C34.8698 1.375 35.5938 1.80208 36.1875 2.34375C36.7917 2.88542 37.2552 3.52083 37.5781 4.25C37.901 4.96875 38.0625 5.73438 38.0625 6.54688V16.0469C38.0625 16.8594 37.901 17.6302 37.5781 18.3594C37.2552 19.0781 36.7917 19.7083 36.1875 20.25C35.5938 20.7917 34.8698 21.2188 34.0156 21.5312C33.1615 21.8438 32.2083 22 31.1562 22H26.3438C25.2917 22 24.3385 21.8438 23.4844 21.5312C22.6302 21.2188 21.901 20.7917 21.2969 20.25C20.7031 19.7083 20.2448 19.0781 19.9219 18.3594C19.599 17.6302 19.4375 16.8594 19.4375 16.0469V6.54688C19.4375 5.73438 19.599 4.96875 19.9219 4.25C20.2448 3.52083 20.7031 2.88542 21.2969 2.34375C21.901 1.80208 22.6302 1.375 23.4844 1.0625C24.3385 0.75 25.2917 0.59375 26.3438 0.59375H31.1562Z" fill="url(#paint1_linear_57_2)"/>
<path d="M56.6562 0.59375C57.7083 0.59375 58.6615 0.75 59.5156 1.0625C60.3698 1.375 61.0938 1.80208 61.6875 2.34375C62.2917 2.88542 62.7552 3.52083 63.0781 4.25C63.401 4.96875 63.5625 5.73438 63.5625 6.54688V16.0469C63.5625 16.8594 63.401 17.6302 63.0781 18.3594C62.7552 19.0781 62.2917 19.7083 61.6875 20.25C61.0938 20.7917 60.3698 21.2188 59.5156 21.5312C58.6615 21.8438 57.7083 22 56.6562 22H51.8438C50.7917 22 49.8385 21.8438 48.9844 21.5312C48.1302 21.2188 47.401 20.7917 46.7969 20.25C46.2031 19.7083 45.7448 19.0781 45.4219 18.3594C45.099 17.6302 44.9375 16.8594 44.9375 16.0469V6.54688C44.9375 5.73438 45.099 4.96875 45.4219 4.25C45.7448 3.52083 46.2031 2.88542 46.7969 2.34375C47.401 1.80208 48.1302 1.375 48.9844 1.0625C49.8385 0.75 50.7917 0.59375 51.8438 0.59375H56.6562ZM59.5938 10.0312L59.375 8.6875L58.375 7.70312L56.75 7.53125H53.25L52.2969 7.34375C52.2448 7.16667 52.2083 7.01042 52.1875 6.875C52.1667 6.72917 52.1302 6.57812 52.0781 6.42188V4.78125L52.2969 3.85938L53.3281 3.65625H57.2969L58.7656 3.95312L59.1406 2.25L57.3281 2H53.2188L51.6562 2.21875L50.6406 3.21875L50.4375 4.53125V6.67188L50.6406 7.98438L51.6562 8.96875L53.2188 9.17188H56.75L57.7031 9.32812C57.7344 9.48438 57.7708 9.63021 57.8125 9.76562C57.8542 9.90104 57.8906 10.0417 57.9219 10.1875V12.2344C57.901 12.3698 57.8646 12.5156 57.8125 12.6719C57.7708 12.8281 57.7344 12.974 57.7031 13.1094L56.6875 13.2656H52.8125L51.2812 13.0156L50.8906 14.7031L52.7188 14.9219H56.7812L58.375 14.7344L59.375 13.75L59.5938 12.4062V10.0312Z" fill="url(#paint2_linear_57_2)"/>
<path d="M69.0938 13.2656V14.9219H78.125V13.2656H74.4531V3.65625H78.125V2H69.0938V3.65625H72.7812V13.2656H69.0938ZM75.1562 0.59375C76.2083 0.59375 77.1615 0.75 78.0156 1.0625C78.8698 1.375 79.5938 1.80208 80.1875 2.34375C80.7917 2.88542 81.2552 3.52083 81.5781 4.25C81.901 4.96875 82.0625 5.73438 82.0625 6.54688V16.0469C82.0625 16.8594 81.901 17.6302 81.5781 18.3594C81.2552 19.0781 80.7917 19.7083 80.1875 20.25C79.5938 20.7917 78.8698 21.2188 78.0156 21.5312C77.1615 21.8438 76.2083 22 75.1562 22H70.3438C69.2917 22 68.3385 21.8438 67.4844 21.5312C66.6302 21.2188 65.901 20.7917 65.2969 20.25C64.7031 19.7083 64.2448 19.0781 63.9219 18.3594C63.599 17.6302 63.4375 16.8594 63.4375 16.0469V6.54688C63.4375 5.73438 63.599 4.96875 63.9219 4.25C64.2448 3.52083 64.7031 2.88542 65.2969 2.34375C65.901 1.80208 66.6302 1.375 67.4844 1.0625C68.3385 0.75 69.2917 0.59375 70.3438 0.59375H75.1562Z" fill="url(#paint3_linear_57_2)"/>
<path d="M93.6562 0.59375C94.7083 0.59375 95.6615 0.75 96.5156 1.0625C97.3698 1.375 98.0938 1.80208 98.6875 2.34375C99.2917 2.88542 99.7552 3.52083 100.078 4.25C100.401 4.96875 100.562 5.73438 100.562 6.54688V16.0469C100.562 16.8594 100.401 17.6302 100.078 18.3594C99.7552 19.0781 99.2917 19.7083 98.6875 20.25C98.0938 20.7917 97.3698 21.2188 96.5156 21.5312C95.6615 21.8438 94.7083 22 93.6562 22H88.8438C87.7917 22 86.8385 21.8438 85.9844 21.5312C85.1302 21.2188 84.401 20.7917 83.7969 20.25C83.2031 19.7083 82.7448 19.0781 82.4219 18.3594C82.099 17.6302 81.9375 16.8594 81.9375 16.0469V6.54688C81.9375 5.73438 82.099 4.96875 82.4219 4.25C82.7448 3.52083 83.2031 2.88542 83.7969 2.34375C84.401 1.80208 85.1302 1.375 85.9844 1.0625C86.8385 0.75 87.7917 0.59375 88.8438 0.59375H93.6562ZM91.2188 2.25L90.3594 2H88.3125L87 2.21875L86 3.21875V14.9219H87.6719V3.79688C87.8177 3.76562 87.9479 3.74479 88.0625 3.73438C88.1771 3.72396 88.3021 3.69792 88.4375 3.65625H90.2188C90.3333 3.69792 90.4427 3.72396 90.5469 3.73438C90.6615 3.74479 90.776 3.76562 90.8906 3.79688V10.4219H92.5625V3.79688L93.2344 3.65625H95.0312C95.1562 3.69792 95.2812 3.72396 95.4062 3.73438C95.5312 3.74479 95.6615 3.76562 95.7969 3.79688V14.9219H97.4531V3.21875L96.4688 2.21875L95.1562 2H93.1094L92.2656 2.25L91.7344 3.32812L91.2188 2.25Z" fill="url(#paint4_linear_57_2)"/>
<path d="M112.156 0.59375C113.208 0.59375 114.161 0.75 115.016 1.0625C115.87 1.375 116.594 1.80208 117.188 2.34375C117.792 2.88542 118.255 3.52083 118.578 4.25C118.901 4.96875 119.062 5.73438 119.062 6.54688V16.0469C119.062 16.8594 118.901 17.6302 118.578 18.3594C118.255 19.0781 117.792 19.7083 117.188 20.25C116.594 20.7917 115.87 21.2188 115.016 21.5312C114.161 21.8438 113.208 22 112.156 22H107.344C106.292 22 105.339 21.8438 104.484 21.5312C103.63 21.2188 102.901 20.7917 102.297 20.25C101.703 19.7083 101.245 19.0781 100.922 18.3594C100.599 17.6302 100.438 16.8594 100.438 16.0469V6.54688C100.438 5.73438 100.599 4.96875 100.922 4.25C101.245 3.52083 101.703 2.88542 102.297 2.34375C102.901 1.80208 103.63 1.375 104.484 1.0625C105.339 0.75 106.292 0.59375 107.344 0.59375H112.156ZM115.031 4.53125L114.812 3.21875L113.812 2.21875L112.219 2H106.391V14.9219H108.016V10.3125H112.219L113.812 10.125L114.812 9.14062L115.031 7.79688V4.53125ZM113.141 8.5L112.125 8.65625H108.016V3.65625H112.125L113.203 3.82812L113.359 4.75V7.625L113.141 8.5Z" fill="url(#paint5_linear_57_2)"/>
<path d="M12.6562 0.59375C13.7083 0.59375 14.6615 0.75 15.5156 1.0625C16.3698 1.375 17.0938 1.80208 17.6875 2.34375C18.2917 2.88542 18.7552 3.52083 19.0781 4.25C19.401 4.96875 19.5625 5.73438 19.5625 6.54688V16.0469C19.5625 16.8594 19.401 17.6302 19.0781 18.3594C18.7552 19.0781 18.2917 19.7083 17.6875 20.25C17.0938 20.7917 16.3698 21.2188 15.5156 21.5312C14.6615 21.8438 13.7083 22 12.6562 22H7.84375C6.79167 22 5.83854 21.8438 4.98438 21.5312C4.13021 21.2188 3.40104 20.7917 2.79688 20.25C2.20312 19.7083 1.74479 19.0781 1.42188 18.3594C1.09896 17.6302 0.9375 16.8594 0.9375 16.0469V6.54688C0.9375 5.73438 1.09896 4.96875 1.42188 4.25C1.74479 3.52083 2.20312 2.88542 2.79688 2.34375C3.40104 1.80208 4.13021 1.375 4.98438 1.0625C5.83854 0.75 6.79167 0.59375 7.84375 0.59375H12.6562ZM15.7812 2H14.125V12.2344C14.1042 12.3698 14.0677 12.5156 14.0156 12.6719C13.974 12.8281 13.9323 12.974 13.8906 13.1094L12.875 13.2656H8.875L7.84375 13.1094L7.625 12.1719V2H6V12.4062L6.1875 13.75L7.20312 14.7344L8.78125 14.9219H12.9688L14.5625 14.7344L15.5625 13.75L15.7812 12.4062V2Z" stroke="black" stroke-width="2" mask="url(#path-1-inside-1_57_2)"/>
<path d="M34.0625 4.5L33.8438 3.1875L32.8438 2.1875L31.25 2H27.3438L24.5312 2.39062V14.9219H26.1875V3.82812L27.4062 3.625H31.1562L32.2344 3.79688L32.3906 4.71875V14.9219H34.0625V4.5ZM31.1562 0.59375C32.2083 0.59375 33.1615 0.75 34.0156 1.0625C34.8698 1.375 35.5938 1.80208 36.1875 2.34375C36.7917 2.88542 37.2552 3.52083 37.5781 4.25C37.901 4.96875 38.0625 5.73438 38.0625 6.54688V16.0469C38.0625 16.8594 37.901 17.6302 37.5781 18.3594C37.2552 19.0781 36.7917 19.7083 36.1875 20.25C35.5938 20.7917 34.8698 21.2188 34.0156 21.5312C33.1615 21.8438 32.2083 22 31.1562 22H26.3438C25.2917 22 24.3385 21.8438 23.4844 21.5312C22.6302 21.2188 21.901 20.7917 21.2969 20.25C20.7031 19.7083 20.2448 19.0781 19.9219 18.3594C19.599 17.6302 19.4375 16.8594 19.4375 16.0469V6.54688C19.4375 5.73438 19.599 4.96875 19.9219 4.25C20.2448 3.52083 20.7031 2.88542 21.2969 2.34375C21.901 1.80208 22.6302 1.375 23.4844 1.0625C24.3385 0.75 25.2917 0.59375 26.3438 0.59375H31.1562Z" stroke="black" stroke-width="2" mask="url(#path-1-inside-1_57_2)"/>
<path d="M56.6562 0.59375C57.7083 0.59375 58.6615 0.75 59.5156 1.0625C60.3698 1.375 61.0938 1.80208 61.6875 2.34375C62.2917 2.88542 62.7552 3.52083 63.0781 4.25C63.401 4.96875 63.5625 5.73438 63.5625 6.54688V16.0469C63.5625 16.8594 63.401 17.6302 63.0781 18.3594C62.7552 19.0781 62.2917 19.7083 61.6875 20.25C61.0938 20.7917 60.3698 21.2188 59.5156 21.5312C58.6615 21.8438 57.7083 22 56.6562 22H51.8438C50.7917 22 49.8385 21.8438 48.9844 21.5312C48.1302 21.2188 47.401 20.7917 46.7969 20.25C46.2031 19.7083 45.7448 19.0781 45.4219 18.3594C45.099 17.6302 44.9375 16.8594 44.9375 16.0469V6.54688C44.9375 5.73438 45.099 4.96875 45.4219 4.25C45.7448 3.52083 46.2031 2.88542 46.7969 2.34375C47.401 1.80208 48.1302 1.375 48.9844 1.0625C49.8385 0.75 50.7917 0.59375 51.8438 0.59375H56.6562ZM59.5938 10.0312L59.375 8.6875L58.375 7.70312L56.75 7.53125H53.25L52.2969 7.34375C52.2448 7.16667 52.2083 7.01042 52.1875 6.875C52.1667 6.72917 52.1302 6.57812 52.0781 6.42188V4.78125L52.2969 3.85938L53.3281 3.65625H57.2969L58.7656 3.95312L59.1406 2.25L57.3281 2H53.2188L51.6562 2.21875L50.6406 3.21875L50.4375 4.53125V6.67188L50.6406 7.98438L51.6562 8.96875L53.2188 9.17188H56.75L57.7031 9.32812C57.7344 9.48438 57.7708 9.63021 57.8125 9.76562C57.8542 9.90104 57.8906 10.0417 57.9219 10.1875V12.2344C57.901 12.3698 57.8646 12.5156 57.8125 12.6719C57.7708 12.8281 57.7344 12.974 57.7031 13.1094L56.6875 13.2656H52.8125L51.2812 13.0156L50.8906 14.7031L52.7188 14.9219H56.7812L58.375 14.7344L59.375 13.75L59.5938 12.4062V10.0312Z" stroke="black" stroke-width="2" mask="url(#path-1-inside-1_57_2)"/>
<path d="M69.0938 13.2656V14.9219H78.125V13.2656H74.4531V3.65625H78.125V2H69.0938V3.65625H72.7812V13.2656H69.0938ZM75.1562 0.59375C76.2083 0.59375 77.1615 0.75 78.0156 1.0625C78.8698 1.375 79.5938 1.80208 80.1875 2.34375C80.7917 2.88542 81.2552 3.52083 81.5781 4.25C81.901 4.96875 82.0625 5.73438 82.0625 6.54688V16.0469C82.0625 16.8594 81.901 17.6302 81.5781 18.3594C81.2552 19.0781 80.7917 19.7083 80.1875 20.25C79.5938 20.7917 78.8698 21.2188 78.0156 21.5312C77.1615 21.8438 76.2083 22 75.1562 22H70.3438C69.2917 22 68.3385 21.8438 67.4844 21.5312C66.6302 21.2188 65.901 20.7917 65.2969 20.25C64.7031 19.7083 64.2448 19.0781 63.9219 18.3594C63.599 17.6302 63.4375 16.8594 63.4375 16.0469V6.54688C63.4375 5.73438 63.599 4.96875 63.9219 4.25C64.2448 3.52083 64.7031 2.88542 65.2969 2.34375C65.901 1.80208 66.6302 1.375 67.4844 1.0625C68.3385 0.75 69.2917 0.59375 70.3438 0.59375H75.1562Z" stroke="black" stroke-width="2" mask="url(#path-1-inside-1_57_2)"/>
<path d="M93.6562 0.59375C94.7083 0.59375 95.6615 0.75 96.5156 1.0625C97.3698 1.375 98.0938 1.80208 98.6875 2.34375C99.2917 2.88542 99.7552 3.52083 100.078 4.25C100.401 4.96875 100.562 5.73438 100.562 6.54688V16.0469C100.562 16.8594 100.401 17.6302 100.078 18.3594C99.7552 19.0781 99.2917 19.7083 98.6875 20.25C98.0938 20.7917 97.3698 21.2188 96.5156 21.5312C95.6615 21.8438 94.7083 22 93.6562 22H88.8438C87.7917 22 86.8385 21.8438 85.9844 21.5312C85.1302 21.2188 84.401 20.7917 83.7969 20.25C83.2031 19.7083 82.7448 19.0781 82.4219 18.3594C82.099 17.6302 81.9375 16.8594 81.9375 16.0469V6.54688C81.9375 5.73438 82.099 4.96875 82.4219 4.25C82.7448 3.52083 83.2031 2.88542 83.7969 2.34375C84.401 1.80208 85.1302 1.375 85.9844 1.0625C86.8385 0.75 87.7917 0.59375 88.8438 0.59375H93.6562ZM91.2188 2.25L90.3594 2H88.3125L87 2.21875L86 3.21875V14.9219H87.6719V3.79688C87.8177 3.76562 87.9479 3.74479 88.0625 3.73438C88.1771 3.72396 88.3021 3.69792 88.4375 3.65625H90.2188C90.3333 3.69792 90.4427 3.72396 90.5469 3.73438C90.6615 3.74479 90.776 3.76562 90.8906 3.79688V10.4219H92.5625V3.79688L93.2344 3.65625H95.0312C95.1562 3.69792 95.2812 3.72396 95.4062 3.73438C95.5312 3.74479 95.6615 3.76562 95.7969 3.79688V14.9219H97.4531V3.21875L96.4688 2.21875L95.1562 2H93.1094L92.2656 2.25L91.7344 3.32812L91.2188 2.25Z" stroke="black" stroke-width="2" mask="url(#path-1-inside-1_57_2)"/>
<path d="M112.156 0.59375C113.208 0.59375 114.161 0.75 115.016 1.0625C115.87 1.375 116.594 1.80208 117.188 2.34375C117.792 2.88542 118.255 3.52083 118.578 4.25C118.901 4.96875 119.062 5.73438 119.062 6.54688V16.0469C119.062 16.8594 118.901 17.6302 118.578 18.3594C118.255 19.0781 117.792 19.7083 117.188 20.25C116.594 20.7917 115.87 21.2188 115.016 21.5312C114.161 21.8438 113.208 22 112.156 22H107.344C106.292 22 105.339 21.8438 104.484 21.5312C103.63 21.2188 102.901 20.7917 102.297 20.25C101.703 19.7083 101.245 19.0781 100.922 18.3594C100.599 17.6302 100.438 16.8594 100.438 16.0469V6.54688C100.438 5.73438 100.599 4.96875 100.922 4.25C101.245 3.52083 101.703 2.88542 102.297 2.34375C102.901 1.80208 103.63 1.375 104.484 1.0625C105.339 0.75 106.292 0.59375 107.344 0.59375H112.156ZM115.031 4.53125L114.812 3.21875L113.812 2.21875L112.219 2H106.391V14.9219H108.016V10.3125H112.219L113.812 10.125L114.812 9.14062L115.031 7.79688V4.53125ZM113.141 8.5L112.125 8.65625H108.016V3.65625H112.125L113.203 3.82812L113.359 4.75V7.625L113.141 8.5Z" stroke="black" stroke-width="2" mask="url(#path-1-inside-1_57_2)"/>
<defs>
<linearGradient id="paint0_linear_57_2" x1="60.7875" y1="6.31868" x2="60.7875" y2="15.2794" gradientUnits="userSpaceOnUse">
<stop stop-color="#FF0000"/>
<stop offset="0.0001" stop-color="#FF0000"/>
<stop offset="0.515" stop-color="#0F9494"/>
<stop offset="1" stop-color="#4200FF"/>
</linearGradient>
<linearGradient id="paint1_linear_57_2" x1="60.7875" y1="6.31868" x2="60.7875" y2="15.2794" gradientUnits="userSpaceOnUse">
<stop stop-color="#FF0000"/>
<stop offset="0.0001" stop-color="#FF0000"/>
<stop offset="0.515" stop-color="#0F9494"/>
<stop offset="1" stop-color="#4200FF"/>
</linearGradient>
<linearGradient id="paint2_linear_57_2" x1="83" y1="5" x2="83" y2="20.5" gradientUnits="userSpaceOnUse">
<stop stop-color="#FF0000"/>
<stop stop-color="#FF0000"/>
<stop offset="0.515" stop-color="#12A4A4"/>
<stop offset="1" stop-color="#4200FF"/>
</linearGradient>
<linearGradient id="paint3_linear_57_2" x1="83" y1="5" x2="83" y2="20.5" gradientUnits="userSpaceOnUse">
<stop stop-color="#FF0000"/>
<stop stop-color="#FF0000"/>
<stop offset="0.515" stop-color="#12A4A4"/>
<stop offset="1" stop-color="#4200FF"/>
</linearGradient>
<linearGradient id="paint4_linear_57_2" x1="83" y1="5" x2="83" y2="20.5" gradientUnits="userSpaceOnUse">
<stop stop-color="#FF0000"/>
<stop stop-color="#FF0000"/>
<stop offset="0.515" stop-color="#12A4A4"/>
<stop offset="1" stop-color="#4200FF"/>
</linearGradient>
<linearGradient id="paint5_linear_57_2" x1="83" y1="5" x2="83" y2="20.5" gradientUnits="userSpaceOnUse">
<stop stop-color="#FF0000"/>
<stop stop-color="#FF0000"/>
<stop offset="0.515" stop-color="#12A4A4"/>
<stop offset="1" stop-color="#4200FF"/>
</linearGradient>
</defs>
</svg>
